<svg xmlns="http://www.w3.org/2000/svg" viewBox="0 0 1000 250">
  <defs>
    <style>
      .cls-1 {
        font-size: 18px;
        font-family: Lato-Bold, Lato;
        font-weight: 700;
      }
      .cls-2 {
        fill: none;
        stroke: #000;
        stroke-linecap: round;
        stroke-linejoin: round;
        stroke-width: 12px;
        fill-rule: evenodd;
      }
    </style>
  </defs>
  <title>LogoWithText</title>
  <g id="Layer_5" data-name="Layer 5">
    <g id="Layer_3" data-name="Layer 3"><path d="M125.58,94.59a7.93,7.93,0,0,0-7.93,7.93v5.12h15.87s0-3.54,0-5.12A7.93,7.93,0,0,0,125.58,94.59Z"/><path
      d="M193.45,174.28,133.54,46.54s-2.24-6.31-8.08-6.31-8.07,6.31-8.07,6.31L57.47,174.28s-4.28,9,7.38,14.55,15.94-3.47,15.94-3.47l18.52-39h52.3l18.53,39s4.28,9,15.94,3.47S193.45,174.28,193.45,174.28Zm-83.18-45.72-.06-21v-5.12a15.4,15.4,0,1,1,30.8,0v5.12l.06,21Z"/>
      <text class="cls-1" transform="translate(923.98 158.84)">TM</text>
    </g>
  </g>
  <g id="Layer_4" data-name="Layer 4"><path class="cls-2" d="M201.15,50.38Q232.5,81.73,232.5,126t-31.35,75.66Q169.8,233,125.5,233T49.9,201.63Q18.55,170.27,18.55,126T49.9,50.38Q81.25,19,125.5,19T201.15,50.38Z"/><path
    d="M301.26,84c.82-2.78,2-5.25,5.25-5.25s4.64,2.57,5.36,5.25l19.88,69.73c.72,2.47-2.06,5.15-4.95,5.15-3.19,0-4.84-2.68-5.56-5.15l-3.81-12.36H295.49l-3.91,12.36c-.72,2.47-2.37,5.15-5.56,5.15-2.89,0-5.67-2.68-4.95-5.15Zm5.36,19.16h-.21l-8,27.91h16.17Z"/><path
    d="M404.88,151.53c0,2.26.41,7.31-4.85,7.31-4.22,0-4.94-3.5-4.94-6.9v-1.65l-8,5.25c-3.2,2.06-5.87,3.3-8.55,3.3H371.2a13.74,13.74,0,0,1-9.17-3.6c-4.43-3.82-4.33-8-4.53-13.39l-1-31.11c-.11-3.6.41-7.41,4.94-7.41,4.22,0,4.74,3.6,4.84,6.79l1,30.39c.1,2.26.21,4.94,1,6.38s3.4,2.06,5.77,2.06h3.3a5.46,5.46,0,0,0,3.08-.92L395,138.86V110.12c0-3.4.72-6.79,4.94-6.79s4.95,3.39,4.95,6.79Z"/><path
    d="M450.5,140.2c0,5.56-.2,8.75,6.6,8.75h5c4,0,5.87-.31,6.9-4.32a5.06,5.06,0,0,1,4.95-4,5,5,0,0,1,5,4.94c0,2.78-1.75,6.29-3.4,8.24-3.6,4.33-8.34,5.05-13.59,5.05H457c-4.94,0-9.27-1.13-12.77-4.94-3.81-4.23-3.6-8.45-3.6-13.8V113.21h-3.2c-2.88,0-6.8-.61-6.8-4.94s3.51-4.94,6.8-4.94h3.2V93.23c0-3.4.72-6.8,4.94-6.8s4.94,3.4,4.94,6.8v10.1h16.59c3.29,0,6.79.72,6.79,4.94s-3.91,4.94-6.79,4.94H450.5Z"/><path
    d="M532.39,113.21a6,6,0,0,0-3.09.93l-14.63,9.17V152c0,3.4-.72,6.8-4.94,6.8s-5-3.4-5-6.8V89.73c0-3.4.72-6.8,5-6.8s4.94,3.4,4.94,6.8v22.14l8-5.25c2.57-1.65,5.56-3.29,8.85-3.29h6.59a13.15,13.15,0,0,1,9.58,3.6c4.43,3.81,4.23,8,4.43,13.39l1,31.1c.1,3.51-.41,7.42-4.84,7.42-4,0-4.84-3.4-4.94-6.69l-1-30.49c-.21-4.74.1-8.45-5.46-8.45Z"/><path
    d="M608.09,119.91V152c0,3.4-.72,6.8-4.94,6.8s-4.95-3.4-4.95-6.8V119c0-1.65.21-4.74-2.37-4.74-1.13,0-1.85.93-2.67,1.65l-4.33,4V152c0,3.4-.72,6.8-4.94,6.8s-4.95-3.4-4.95-6.8V110.33c0-3.5.93-7,5.15-7a4.85,4.85,0,0,1,4.74,3.91l.82-.62c2.58-2,4.12-3.29,7.52-3.29,3.81,0,6.8,1.85,9.07,4.94l.82-.82c3.09-3.09,4.33-4.12,8.65-4.12a10.19,10.19,0,0,1,8.24,4c2.47,3.2,2.27,6.08,2.37,9.89l1,34.19c.1,3.51-.41,7.42-4.84,7.42-4,0-4.84-3.4-4.94-6.69l-1-32.65c-.11-1.75.41-5.26-2.27-5.26-1.44,0-3.3,2.48-4.12,3.4Z"/><path
    d="M669.68,113.21c-2.88,0-6.8-.61-6.8-4.94s3.51-4.94,6.8-4.94h13.6c5.15,0,8.86.51,12.77,4.42s4.33,6.8,4.43,11.75l1,33.57c.1,2.89-1.34,5.77-4.64,5.77a5,5,0,0,1-5-4.94l-6.8,3.5c-2.78,1.44-2.88,1.44-6.08,1.44h-9.47c-4.43,0-7.63-.51-11.23-3.5-4.12-3.4-5.15-7-5.15-12.15v-4.33c0-4.74,1.13-7.73,4.84-11,3.4-3,7.21-3.71,11.54-3.71h21.21v-2.27c0-7.41-1.64-8.65-8.75-8.65Zm-.1,20.81c-2.68,0-6.59.72-6.59,4.32v6.6c0,3.29,4,4,6.38,4h10.92l10.92-5.66v-2.16c0-5.46-1.55-7.11-7-7.11Z"/><path
    d="M759.81,107.34c1.75-1.54,4.22-4,6.59-4a5,5,0,0,1,4.94,5c0,2.37-1.54,3.5-3.3,4.95l-19.15,15.86,23.28,19.36c1.85,1.55,3.5,2.68,3.5,5.25a5,5,0,0,1-4.95,5.05c-2,0-3.19-1.24-4.63-2.37l-24.82-20.7-4.12,3.71V152c0,3.4-.73,6.8-4.95,6.8s-4.94-3.4-4.94-6.8V89.73c0-3.4.72-6.8,4.94-6.8s4.95,3.4,4.95,6.8V126.4Z"/><path
    d="M819.54,158.84c-4.12,0-5.76,0-8.85-2.68l-4.23-3.7c-3.91-3.51-5-5.77-5-11.13V122.28c0-5.26.72-8.35,4.84-11.85l3.5-3c4.63-4,6.9-4.12,10.92-4.12h9.06c4.84,0,7.11.51,10.92,3.6l4,3.19c4.54,3.61,5.16,7.42,5.16,12.88v7.93c0,5.66-.93,7.31-6.8,7.31H811.3v3.3a4.86,4.86,0,0,0,1.45,2.88l2.47,2.68c1.34,1.44,3.29,1.85,6.59,1.85H843c3.29,0,6.8.72,6.8,5s-3.92,4.94-6.8,4.94Zm-8.24-30.49h28.64v-6c0-1.85.1-3.4-1.24-4.63l-3.81-3.3c-1.24-1.13-3.19-1.24-4.74-1.24h-8.34c-1.85,0-3.4,0-5,1.14l-3.4,2.47c-1.23.93-2.06,1.65-2.06,4.53Z"/><path
    d="M875.58,110.64c0-3.61.41-7.31,4.94-7.31,3.91,0,4.94,3.29,4.94,6.59v4l7.73-6.38c2.78-2.27,5.66-4.22,8.75-4.22h7.93a13,13,0,0,1,9.68,3.91c3.3,3.3,4.43,6.69,4.43,11.23,0,3.39-.61,6.9-4.84,6.9-3.6,0-5-2.89-5-6.08a6.5,6.5,0,0,0-1-4.33c-1.24-1.75-3.61-1.75-6-1.75h-2.88c-1.86,0-3.2.93-5,2.37L885.46,127v25c0,3.4-.72,6.8-4.94,6.8s-4.94-3.4-4.94-6.8Z"/></g>
</svg>
